<svg id="Layer_1" data-name="Layer 1" xmlns="http://www.w3.org/2000/svg" xmlns:xlink="http://www.w3.org/1999/xlink" viewBox="0 0 102 448"><defs><style>.cls-1{fill:#0c0d0d;}.cls-2{fill:url(#linear-gradient);}.cls-3{fill:#e1bd9a;}.cls-4{fill:#f0d1ac;}.cls-5{fill:#1b1c1c;}.cls-15,.cls-6{fill:#c09980;}.cls-6{opacity:0.7;}.cls-7{fill:none;}.cls-8{fill:#551c17;}.cls-9{fill:#cc3828;}.cls-10{fill:#b12d25;}.cls-11{fill:#93251f;}.cls-12{fill:#524831;}.cls-13{fill:#adacac;}.cls-14{fill:#d3a788;}.cls-16{fill:#dfb79a;}.cls-17{fill:#e1be9b;}.cls-18{fill:#f1d1ac;}.cls-19{fill:#3a2817;}</style><linearGradient id="linear-gradient" x1="24.22" y1="256.98" x2="54.5" y2="256.98" gradientUnits="userSpaceOnUse"><stop offset="0" stop-color="#fff"/><stop offset="1"/></linearGradient></defs><title>studio 1</title><path class="cls-1" d="M48.53,419.17l.56,3.81c.6,2,.94,3.58.68,4.35a12.87,12.87,0,0,1-2.25,2.78s.94,9.24-3.15,12.3S31.42,447.05,22.77,444s1.1-9.21,2-13.24a29,29,0,0,1,2.56-6.24h0l.28-4.34a4.92,4.92,0,0,0,.21-2.73,20.59,20.59,0,0,1,2-.84,23.57,23.57,0,0,1,8.2-1.47S48.45,418.93,48.53,419.17Z"/><path class="cls-2" d="M51.42,257.08a15.19,15.19,0,0,0,2.27.08h.8l-.8,0-1,0c-.38,0-.8-.11-1.29-.16a3.41,3.41,0,0,1-.59-.11V257A3,3,0,0,0,51.42,257.08Z"/><path class="cls-3" d="M51.54,255.18c0,.3,0,1,0,1.95,0,1.48,0,3.62-.09,6.2,0,.44,0,.88,0,1.33-.21,11.71-.68,30.55-1.33,35.63-1,7.58-3.85,31.55-3.85,31.55s2.13,21,1.67,25c-1.28,11.57-1.55,22.91-1.55,22.91s-.78,21.6-.73,29.58a1.84,1.84,0,0,1,.2,3.19c.16.8.4,1.7.68,2.66.48,1.61,1.1,3.37,1.66,5,.33,1,.65,1.95.93,2.83.59,2,.94,3.58.68,4.35a2.42,2.42,0,0,1-.21.41,17.18,17.18,0,0,1-2,2.37s.94,9.24-3.15,12.29S31.42,447.11,22.77,444s1.1-9.21,2-13.24a28.91,28.91,0,0,1,2.56-6.24h0a27.64,27.64,0,0,0,1.94-4.3v0a18.55,18.55,0,0,0,.5-3.18c0-.13,0-.26,0-.4.28-3.37.3-7.47.58-8.65,2.62-11.19-8.77-29-7.42-51.25.8-13,3.48-21.16,3.24-26.06-.43-8.49-3.77-20.59-5.4-32.52-.95-6.83-2.15-18.52-2.7-29.17-.13-2.23-.21-4.42-.25-6.5a90.7,90.7,0,0,1,.28-11.77h0c0-.16,0-.33.08-.49.11-.74.22-1.46.34-2.14.94-5.83,1.79-9.57,2.1-10.9.09-.36.13-.54.13-.54a23.67,23.67,0,0,1,1-6.6l.09-.25c.28-.82.81-2.47,1.45-4.5.29-1,.62-2,1-3.12.09-.27.17-.56.27-.84a1.15,1.15,0,0,1,0-.17v0a1.07,1.07,0,0,0,0,.18,16.13,16.13,0,0,0,2,4.85c.07.12.14.25.22.36,1.59,2.4,4.12,3.77,6.55,5.1a19.54,19.54,0,0,1,4.19,2.74c1.58,1.53,4.4,6,6.57,10a52.91,52.91,0,0,1,2.52,5.17l.55,1.39C48.1,253.14,48.84,254.61,51.54,255.18Z"/><path class="cls-4" d="M87.62,262.45c0,2-.12,4-.24,6.16-.55,10.75-1.77,22.63-2.73,29.55-1.62,11.92-5,24-5.4,32.52-.24,4.9,2.44,13.07,3.23,26.06,1.35,22.22-10,40.06-7.42,51.25.22.94.28,3.75.44,6.54,0,.89.11,1.78.19,2.61a18.33,18.33,0,0,0,.49,3.07v0a31.86,31.86,0,0,0,2.1,4.63,27.58,27.58,0,0,1,2.39,5.93c1,4,10.71,10.17,2,13.24s-17.48,1.48-21.59-1.57S58,430.17,58,430.17a13.62,13.62,0,0,1-2.2-2.68h0s0-.07,0-.11a7.86,7.86,0,0,1,.51-3.75v0c.29-1,.68-2.19,1.09-3.39.57-1.67,1.18-3.43,1.66-5,.28-1,.52-1.85.68-2.66a1.84,1.84,0,0,1,.2-3.19c0-8-.73-29.58-.73-29.58s-.27-11.34-1.55-22.91c-.46-4,1.67-25,1.67-25s-2.88-24-3.85-31.55c-.65-5.1-1.13-24-1.34-35.72,0-.43,0-.84,0-1.25,0-2.57-.07-4.72-.09-6.18v0c0-1,0-1.65,0-1.95,2.69-.58,3.43-2,4.33-4.26l.55-1.39a54.77,54.77,0,0,1,2.51-5.17c2.17-4,5-8.48,6.57-10a19.52,19.52,0,0,1,4.19-2.74c2.44-1.32,5-2.69,6.55-5.1a11.71,11.71,0,0,0,.66-1.12,16.57,16.57,0,0,0,1.54-4.08s0,0,0,0a.85.85,0,0,0,0-.14c.1.35.22.7.32,1l.8,2.58c.71,2.28,1.31,4.16,1.61,5l.09.25a23.62,23.62,0,0,1,1,6.6l.13.54c.28,1.2,1,4.42,1.85,9.37.05.35.12.7.18,1.07.16,1,.32,2,.48,3.08h0A91.23,91.23,0,0,1,87.62,262.45Z"/><path class="cls-5" d="M57,419.49l-.55,4.11c-.59,2.12-.94,3.86-.68,4.69a13.49,13.49,0,0,0,2.24,3s-.94,10,3.14,13.24,12.9,5,21.52,1.69c3.34-1.28,3.57-5.44,3.57-5.44s-5-6.16-5.62-8.83a32.91,32.91,0,0,0-2.54-6.72h0l-1.83-4.56c-.11-.4,1.06-1.45,1.34-3.06a21,21,0,0,0-2-.91,21.92,21.92,0,0,0-8.17-1.58S57.11,419.23,57,419.49Z"/><path class="cls-1" d="M82.75,444c-8.65,3.07-17.48,1.48-21.59-1.57S58,430.11,58,430.11a12.93,12.93,0,0,1-2.25-2.78,7.91,7.91,0,0,1,.51-3.75v0l.73-4.38c.09-.28,9.27-4.06,9.27-4.06a23.43,23.43,0,0,1,9.44,2c.64.27,1.26.58,1.86.9-.39,1.06-.81,1.71-.74,2l1.48,4.84a27.75,27.75,0,0,1,2.39,5.93C81.65,434.77,91.41,440.9,82.75,444Z"/><path class="cls-3" d="M52.73,125.08V257.15H50.85l.06-.15-.95-.22c-.27-.11-.57-.25-.86-.39a7.28,7.28,0,0,1-.82-.62,13.94,13.94,0,0,1-2.17-4.07c-.94-2.23-2-4.72-3.22-7.34-.46-1-1-2-1.46-3.08a35.42,35.42,0,0,0-3.14-5.49c-.17-.21-.36-.4-.55-.61s-.38-.34-.57-.49c-.43-.32-.87-.62-1.33-.91-.94-.56-1.93-1.06-2.91-1.59a17.42,17.42,0,0,1-5.47-4.05,15.8,15.8,0,0,1-1.31-2.1,16.7,16.7,0,0,1-1.39-3.87,0,0,0,0,1,0,0c-.07-.27-.12-.55-.16-.82,0-.06,0-.1,0-.16a13,13,0,0,1,.12-5.2c.15-.46.31-.92.46-1.37l.48-1.26c.29-.85.54-1.69.79-2.48.46-1.59.87-3.07,1.22-4.39a24.37,24.37,0,0,0,.53-2.6s0,0,0,0c0-5.53-.43-12.6-.68-16.86-.14-2.3-.25-3.79-.25-3.79-.17-.33-.35-.7-.53-1.11-.77-1.7-1.62-4-2.46-6.34-1.09-3.16-2.15-6.55-2.93-9.16l-.06-.19c-.77-2.56-1.28-4.32-1.28-4.32s.12-1,.35-2.7c.14-1.06.33-2.37.57-3.87,1.08-7,3.07-18.08,5.7-24.47,1.33-3.24,4.38-5,7.87-5.79.38-.09.77-.18,1.15-.25,7-1.28,15.24.52,15.24.52C51.51,125.37,52.13,125.22,52.73,125.08Z"/><path class="cls-4" d="M84.22,162.12s-.43,1.89-1.09,4.57c-.14.6-.31,1.26-.48,1.93-.58,2.23-1.26,4.79-2,7.2a58.82,58.82,0,0,1-2.36,6.64c-.13.28-.25.54-.38.78l-.07,1.07c0,.13,0,.29,0,.45,0,.32,0,.69-.06,1.1l0,.46c0,.17,0,.35,0,.54s0,.11,0,.18c0,.28,0,.58-.05.89,0,.15,0,.31,0,.47-.05.92-.11,1.92-.16,3s-.13,2.48-.19,3.78c0,.17,0,.35,0,.52s0,.56,0,.83c0,.07,0,.14,0,.21v.06c0,.27,0,.53,0,.8l0,.81c0,.26,0,.53,0,.79,0,.8,0,1.59-.07,2.35h0c0,.54,0,1.07,0,1.59.24.93.52,2,.86,3.31s.76,2.78,1.22,4.39c.24.8.49,1.64.78,2.47l.48,1.26c.15.45.31.91.46,1.37a13,13,0,0,1,.11,5.19.64.64,0,0,1,0,.14s0,0,0,0c0,.27-.1.54-.15.81,0,0,0,0,0,0h0a16.31,16.31,0,0,1-1.07,3.17,15.16,15.16,0,0,1-1.63,2.8,17.47,17.47,0,0,1-5.48,4c-1,.53-2,1-2.9,1.59a15.16,15.16,0,0,0-1.33.9l-.58.49c-.18.21-.38.41-.55.61a35,35,0,0,0-3.13,5.48c-.48,1-.94,2-1.37,2.92-1.24,2.68-2.33,5.22-3.3,7.49a13.85,13.85,0,0,1-2.17,4.08,7.2,7.2,0,0,1-.83.62c-.29.13-.58.27-.86.39s-.65.16-1,.23l.07.18H52.73V125.08a20.46,20.46,0,0,1,8.57-.42,38.08,38.08,0,0,1,6.29.11,25.1,25.1,0,0,1,2.82.46c3.61.81,6.78,2.53,8.15,5.84,2.65,6.42,4.24,17.51,5,24.54.28,2.41.46,4.35.55,5.47C84.19,161.75,84.22,162.12,84.22,162.12Z"/><path class="cls-4" d="M98.18,246.62A71.47,71.47,0,0,1,96,257.93c-1.9,6.41-4.53,9.62-7.74,10.51a6.77,6.77,0,0,1-.86.17c-4,.57-9-2-9.12-5.27a3.73,3.73,0,0,1,.52-1.9c2.08-3.63,6.15-10,7.91-14.88a15.79,15.79,0,0,0,.79-2.87c.89-6.07-4.72-20.36-4.67-22.8a112.16,112.16,0,0,1,1.83-17.59L84.15,196a62.54,62.54,0,0,1-5.85-13.56q-.31-1-.6-2.11c-.61-2.36.09-9.9.83-16.13.59-5,1.21-9.1,1.21-9.1L70.4,125.23l-.58-1.87s12.62,0,20.38,21.62c3.52,9.79,6,24,5.94,44.65C96.14,189.63,99.92,232.45,98.18,246.62Z"/><path class="cls-3" d="M34.47,125.29l-9.42,30.14s.6,4,1.18,8.79c.75,6.29,1.49,14.05.87,16.44-.13.5-.27,1-.4,1.48a63,63,0,0,1-6.05,14.2l-.5,7.28A112.72,112.72,0,0,1,22,221.2c0,2.44-5.58,16.72-4.67,22.79a18,18,0,0,0,1.26,4.08c1.93,4.68,5.52,10.33,7.43,13.67a3.58,3.58,0,0,1,.5,1.59c.24,3.23-4.41,5.83-8.35,5.65a6.88,6.88,0,0,1-1.6-.24c-3.4-.93-6.14-4.46-8.06-11.61a75.34,75.34,0,0,1-1.87-10.2c-1.73-14.17,2-57,2-57-.23-46.14,12.62-60.16,20.44-64.41l.06,0A13.58,13.58,0,0,1,35,123.68Z"/><path class="cls-6" d="M63.48,112.4v0A12.58,12.58,0,0,1,52.7,118.3h-.05c-6.2,0-9.8-4.53-10.73-5.84.22-1.31.41-2.7.54-4.15.08-.87.17-1.74.24-2.65a42.27,42.27,0,0,0,9.83,1.29h.11a40,40,0,0,0,10-1.4c.08.88.16,1.75.25,2.6C63.1,109.64,63.26,111.06,63.48,112.4Z"/><path class="cls-7" d="M27.22,183.24c-.17-.33-.35-.7-.53-1.11a63,63,0,0,1-6.05,14.2l-.5,7.28A112.72,112.72,0,0,1,22,221.2c0,2.44-5.58,16.72-4.67,22.79a18,18,0,0,0,1.26,4.08c.94-5.83,1.79-9.57,2.1-10.9.09-.36.13-.54.13-.54a23.67,23.67,0,0,1,1-6.6l.09-.25c.28-.82.81-2.47,1.45-4.5.29-1,.62-2,1-3.12.09-.27.17-.56.27-.84a1.15,1.15,0,0,1,0-.17,13,13,0,0,1,.12-5.2c.15-.46.31-.92.46-1.37l.48-1.26c.29-.85.54-1.69.79-2.48.46-1.59.87-3.07,1.22-4.39a24.37,24.37,0,0,0,.53-2.6s0,0,0,0C28.09,195.37,27.22,183.24,27.22,183.24Z"/><path class="cls-7" d="M78.29,182.46c-.13.28-.25.54-.38.78,0,0-.72,10.06-.9,18.29h0c0,.54,0,1.07,0,1.59.24.93.52,2,.86,3.31s.76,2.78,1.22,4.39c.24.8.49,1.64.78,2.47l.48,1.26c.15.45.31.91.46,1.37a13,13,0,0,1,.11,5.19.64.64,0,0,1,0,.14.85.85,0,0,0,0-.14c.1.35.22.7.32,1l.8,2.58c.71,2.28,1.31,4.16,1.61,5l.09.25a23.62,23.62,0,0,1,1,6.6l.13.54c.28,1.2,1,4.42,1.85,9.37a15.79,15.79,0,0,0,.79-2.87c.89-6.07-4.72-20.36-4.67-22.8C83,211.78,80.68,190.42,78.29,182.46Z"/><path class="cls-5" d="M48.47,419.49l.56,4.11c.59,2.12.94,3.86.68,4.69a13.65,13.65,0,0,1-2.25,3s.94,10-3.14,13.24-12.9,5-21.52,1.69c-3.34-1.28-3.58-5.44-3.58-5.44s5-6.17,5.62-8.83a32.8,32.8,0,0,1,2.54-6.72h0l.28-4.68a5.74,5.74,0,0,0,.21-2.94,21.45,21.45,0,0,1,2-.91A22,22,0,0,1,38,415.11S48.39,419.22,48.47,419.49Z"/><path class="cls-8" d="M85,299.12c-.71,5.21-2.58,51.13-2.15,58.19.49,8.12-.69,30.89-1.59,45.42-.11,1.91-.23,3.68-.33,5.25-.09,1.22-1.67,2.52-1.74,3.48a6.34,6.34,0,0,0,0,.76,23.61,23.61,0,0,0,.59,3.59c.13,1.4-.68,2.64-1.18,3.92-.36.91.18,2.66.18,3.07a7.69,7.69,0,0,1-1.36,4c-7.33-.56-23.37-.29-23-1.51l-.09-6c.46-1.34.93-2.74,1.32-4,.17-.58.31-1.09.43-1.56a1.1,1.1,0,0,1-.13-.21,3.58,3.58,0,0,1-.53-1.87c0-1-.54-4.88.11-5.58,0-.52,0-1.11,0-1.77,0-10.13-.15-35.94-1.34-46.6-.44-4-1.26-49.39-2.16-56.49-.33-2.57-.61-23.42-.82-29.61-.22,6.2-.49,27.06-.82,29.61-.9,7.1-1.71,52.52-2.17,56.49-1.16,10.37-1.31,35.79-1.33,46.55,0,1,0,1.88,0,2.61.65.69.11,3.83.11,4.78a3.57,3.57,0,0,1-.49,1.82l-.17.27c.12.47.27,1,.44,1.57.38,1.25.85,2.65,1.3,4l-.25,5.29c.32,1-13.55-.64-23.12,2.9l-1.25-6.42s1.1-2.38.82-2.62c-1.11-1-.79-.08-1.34-2.92A3.69,3.69,0,0,0,24,412.73a1.91,1.91,0,0,0-.31-.75,7.86,7.86,0,0,1-1.37-2.5c-.17-2-.37-4.37-.58-7-1.15-14.56-2.68-37.05-2.19-45.16.44-7.06-1.44-53-2.15-58.19-1.33-9.68-3.78-34.07-2.81-46.41l-.13,0,0-.22.28-1.84c.13-.86.27-1.67.4-2.46s.24-1.5.36-2.19c.35-2,.67-3.66.95-5,.33-1.63.61-2.81.76-3.48l.09-.35a24.33,24.33,0,0,1,1.09-7l.08-.24c.26-.73.75-2.27,1.42-4.43l.53-1.69,1.72.41c1,.23,1.92.49,2.91.76l3,.84c6.66,1.86,14.2,4,21.88,4h1.14c7.24-.19,14.05-2.1,20.65-4,1.93-.54,3.75-1.05,5.56-1.51.1,0,.24-.06.36-.1.82-.21,1.62-.39,2.41-.57l1.69-.37.51,1.65c.79,2.55,1.32,4.22,1.59,5l.08.2a24.26,24.26,0,0,1,1.09,7c0,.09,0,.21.09.35.18.77.45,2,.78,3.56.27,1.37.59,3,.94,5,.11.64.23,1.31.34,2,0,.05,0,.11,0,.17.16.93.31,1.91.46,2.94l.21,1.39,0,.13-.1,0C88.74,265,86.29,289.44,85,299.12Z"/><path class="cls-3" d="M51.5,93.45v71.48H12.63c-.63-.27-1-.4-1-.4,0-24,9.29-34.08,16.26-38.28l.06,0a20.92,20.92,0,0,1,7.47-2.89c2.37,0,3.9-3.05,4.92-7.68.16-.71.29-1.45.4-2.23.22-1.31.41-2.69.54-4.14,0-.53.11-1.07.15-1.61,0-.34.07-.69.1-1,.36-4.39.46-9.15.46-13.68C42,92.93,47.27,93.45,51.5,93.45Z"/><path class="cls-4" d="M91.44,164.54a9.74,9.74,0,0,0-.93.4h-39V93.45h.08c4.23,0,9.48-.52,9.48-.52,0,4.5.11,9.2.46,13.57,0,.38.07.77.1,1.14s.11,1,.14,1.45c.16,1.49.33,2.91.55,4.25v0c.08.6.19,1.15.3,1.69,1,4.93,2.58,8.25,5,8.25,0,0,15.31,1.84,21.37,22.38A66.32,66.32,0,0,1,91.44,164.54Z"/><path class="cls-9" d="M51.74,192.14l-.1-15.07-.35-48.94v0l-16.12-7.82s-16.54,1-26,27.43c-2.35,6.58-3.77,15.92-4.59,26.24-.38,4.88-.64,10-.78,15.1C3,216.66,5.27,245.19,5.27,245.19l11.51.1c0,.17,1-8.56,1.49-11.76a63.68,63.68,0,0,1,2.05-8.1,64.38,64.38,0,0,0,2-17.26c0-.33,2.17-17,2.17-17l.71-7.09a23.1,23.1,0,0,1,.41,7.17,63.51,63.51,0,0,1-1.19,9c-.39,1.94-1.17,7.78-1.16,8a23.77,23.77,0,0,1-.43,4.48c.3.35.63.7.61.86-.38,2.4-3,9.5-3.78,12.63-.82,3.33-3,10.51-3.59,13.83-1.13,6-1.67,19.62-1.67,19.62l37.13,1.3L52,222.08Z"/><path class="cls-10" d="M98.7,188.94c-.16-5.12-.41-10.22-.81-15.09-.82-10.28-2.26-19.59-4.6-26.15-9.45-26.47-26-27.43-26-27.43l-16,7.86h0l-.4,48.93-.12,15.07-.25,29.94,1,38.81,36.92-1.48c.94,0-1.68-21.9-2.42-26.94-.58-3.95-4-8.91-5.13-12.72A42.27,42.27,0,0,1,79,213.49c0-.23.92-1.72.88-1.94-.81-5.07-1.18-8.21-1.69-11A85.81,85.81,0,0,1,77,191.18c-.37-5.61.34-7.53.34-7.53l.73,7.46s3.41,29.56,4.08,32.14,1.44,6.19,2.06,8.73.49,3.68,1.17,6.27c.48,1.83.14,4.85.41,6.69l11.57.25S99.54,216.6,98.7,188.94Z"/><path class="cls-11" d="M71.47,121.32c-.6-1.53-6.88-3.35-7.4-4.57-.87-2-1.67-3.8-1.67-3.8-.19,1.93-3.17,10.5-3.17,10.5s-9.35,4.48-7.89,4.8,8.4,9.06,10.38,11.38,1.66,4.46,2.18,1.33S73.06,125.42,71.47,121.32Z"/><path class="cls-11" d="M44,123.44s-3-8.57-3.18-10.5c0,0-.79,1.79-1.67,3.8-.52,1.22-7.7,3.1-8.3,4.63-1.58,4.1,7.94,16.45,8.46,19.57s.19,1,2.17-1.33,8.43-11.06,9.9-11.38S44,123.44,44,123.44Z"/><path class="cls-12" d="M15.09,270.48c-4.73-1.3-8.19-7.65-9.93-21.81-.26-2.16-5.12-5-5.16-8.2,2.56-1.42,10.25-2.23,13.39-2.23,1.06,0,4.94.1,5.95.28-.6,2.79-2.81,5.38-2.54,7.22.73,4.92,5.23,13.35,7.75,17.75S19.82,271.79,15.09,270.48Z"/><path class="cls-12" d="M87.27,270.48c4.73-1.3,8.19-7.65,9.93-21.81.27-2.16,5.13-5,5.17-8.2-2.57-1.42-10.25-2.23-13.39-2.23-1.06,0-4.94.1-5.95.28.59,2.79,2.81,5.38,2.53,7.22-.73,4.92-5.23,13.35-7.75,17.75S82.54,271.79,87.27,270.48Z"/><path class="cls-1" d="M82.46,223.71a104.73,104.73,0,0,1-62.31,0l2.52-10.43a96.24,96.24,0,0,0,57.28,0Q81.21,218.49,82.46,223.71Z"/><path class="cls-13" d="M59.88,223a6.23,6.23,0,0,1-6.22,6.22H48A6.22,6.22,0,0,1,41.75,223h0A6.23,6.23,0,0,1,48,216.82h5.67A6.23,6.23,0,0,1,59.88,223Z"/><path class="cls-14" d="M51.92,10.61c-41.2,0-41.43,34.49-39.6,57.06C9.49,62.32,1.14,64,1.82,72.4c.66,8.12,12.47,12.32,12.31,11.37,3.38,18.58,22.76,29.3,37.8,29.3h.31V10.62Z"/><path class="cls-15" d="M4.45,68.83a3.9,3.9,0,0,1,6-1.13,3.4,3.4,0,0,1,1,3.74c-.29,1.08-1.42,1.16-1.14,2.81a2.91,2.91,0,0,0,1.65,2.39,3.85,3.85,0,0,1,1.39,1.52,4.06,4.06,0,0,1,.18,2.32c-.31,1.34-2.25.28-3.55-.31A24.87,24.87,0,0,1,5.63,76.7C3.89,74.76,3.09,71,4.45,68.83Z"/><path class="cls-16" d="M52.12,10.61c41.2,0,41.43,34.49,39.6,57.06,2.82-5.35,11.18-3.69,10.5,4.73-.66,8.12-12.47,12.32-12.31,11.37-3.38,18.58-22.76,29.3-37.8,29.3h-.31V10.62Z"/><path class="cls-15" d="M99.59,68.83a3.9,3.9,0,0,0-6-1.13,3.41,3.41,0,0,0-1,3.74c.29,1.08,1.43,1.16,1.15,2.81a2.88,2.88,0,0,1-1.66,2.39,3.84,3.84,0,0,0-1.39,1.52,4.14,4.14,0,0,0-.18,2.32c.31,1.34,2.25.28,3.55-.31a24.44,24.44,0,0,0,4.26-3.47C100.15,74.76,100.95,71,99.59,68.83Z"/><path class="cls-17" d="M52.38,20.33C38.83,20.33,28.91,24.27,22.9,32c-8.38,10.85-8.06,27.43-5,39.33.94,3.64,1.43,13.44,2.08,17,2.93,16.1,20.68,24.66,32.37,24.66h.32V20.34Z"/><path class="cls-18" d="M81.8,32.06C75.84,24.34,66,20.41,52.7,20.34v92.72C66,112.91,82,103.52,84.75,88.41c.65-3.6,1.13-13.4,2.08-17C89.92,59.5,90.22,42.94,81.8,32.06Z"/><path class="cls-19" d="M38.51,10.53c-2.23-1.18-11.75-4.8-11.75-4.8S30,7.65,30.4,9.35,8.89,19,5.85,40.66,10.56,71,10.56,71,9.13,55.8,9.13,55.84A71.52,71.52,0,0,0,9.12,68c.61,5.31,2.43,11.47,0,17.63s-3.44,6.64-3.44,6.64,7.24-6.56,8.64-10.75c2.43-7.22,1.46-10.24,2.27-14.27S18,52.28,18,52.28s-3.63,8.79.61,17.43a21.52,21.52,0,0,0,2.94,4.46,25,25,0,0,1-2-11.25c.32-3.62,2.59-4.17,7.67-17.46,2.4-6.3.36-18.41,0-15.46S26.46,40.3,29,44a20.48,20.48,0,0,0,9.36,7.42A16.47,16.47,0,0,1,32.23,39.1a18.76,18.76,0,0,1,1.62-7.65S32.29,40.3,46.32,45.62a11.63,11.63,0,0,0,7.17.5s-5.83-3.27-5.87-8.93A47.66,47.66,0,0,0,72.54,51.64a37.42,37.42,0,0,0,10.44,1s.65-1.3.45,4.7S82.15,65.89,80.66,68a20.54,20.54,0,0,1-2.45,2.39,15.22,15.22,0,0,0,7.57-7.29c2-3.87,1.35-9.08,1.35-9.08a102.23,102.23,0,0,1,0,15.1c-.87,12.61-5.46,18.11-5.46,18.11A28.57,28.57,0,0,0,89.1,76.1c2.21-5.65,1.69-9.17,1.69-9.17s-.38,8.82,10.33,14.78c0,0-3-2-4.46-11.81-1.83-12.51,1.3-22.25-1.13-32s-3.09-10.73-7.14-16S80.44,12.27,69.5,8.75,56.24,6.43,52.06,6.49A20.82,20.82,0,0,0,41.14,9.56a9.45,9.45,0,0,1,.39-5.17A26.2,26.2,0,0,1,43.37,0S40.7,3.91,40.13,4.89C37.76,8.92,38.51,10.53,38.51,10.53Z"/><path class="cls-19" d="M50.75,102.5a2,2,0,0,0-.28,1v1a2.33,2.33,0,0,0,4.65,0v-1a2,2,0,0,0-.28-1c-.66-.06-1.34-.1-2-.1S51.41,102.43,50.75,102.5Z"/><path class="cls-19" d="M69.37,97.73s-.4-.35-1.09-.89-1.78-1.32-3.13-2.16c-2-1.26-4.52-3.23-7.77-3.79a36.24,36.24,0,0,0-9.36,0c-3.25.57-5.76,2.53-7.77,3.79-1.35.84-2.41,1.61-3.13,2.16s-1.09.88-1.09.89A13.82,13.82,0,0,0,34.08,105a14.25,14.25,0,0,0,1.54,6.64,4.93,4.93,0,0,0,1.44,2,5.82,5.82,0,0,0,2.17,1.46c3.16,1.64,8,2.7,13.46,2.7s10.3-1.06,13.46-2.7a5.78,5.78,0,0,0,2.17-1.46,4.89,4.89,0,0,0,1.44-2A14.23,14.23,0,0,0,71.3,105,13.82,13.82,0,0,0,69.37,97.73Zm-3.44,12.91a31,31,0,0,1-13.24,2.59,31,31,0,0,1-13.24-2.59,14.76,14.76,0,0,1-1.07-5.6,16.17,16.17,0,0,1,.09-1.65A18.48,18.48,0,0,1,49.65,98a22.45,22.45,0,0,1,6.09,0,18.49,18.49,0,0,1,11.18,5.41A16.17,16.17,0,0,1,67,105,14.72,14.72,0,0,1,65.93,110.64Z"/></svg>