<svg id="Layer_1" data-name="Layer 1" xmlns="http://www.w3.org/2000/svg" xmlns:xlink="http://www.w3.org/1999/xlink" viewBox="0 0 102 448"><defs><style>.cls-1{fill:#0c0d0d;}.cls-2{fill:url(#linear-gradient);}.cls-3{fill:#e1bd9a;}.cls-4{fill:#f0d1ac;}.cls-5{fill:#1b1c1c;}.cls-13,.cls-6{fill:#c09980;}.cls-6{opacity:0.7;}.cls-7{fill:none;}.cls-8{fill:#161356;}.cls-9{fill:#3a3aef;}.cls-10{fill:#2626a3;}.cls-11{fill:#adacac;}.cls-12{fill:#d3a788;}.cls-14{fill:#dfb79a;}.cls-15{fill:#e1be9b;}.cls-16{fill:#f1d1ac;}.cls-17{fill:#e0b11b;}</style><linearGradient id="linear-gradient" x1="24.21" y1="256.89" x2="54.48" y2="256.89" gradientUnits="userSpaceOnUse"><stop offset="0" stop-color="#fff"/><stop offset="1"/></linearGradient></defs><title>studio 1</title><path class="cls-1" d="M48.51,419l.56,3.81c.6,2,.94,3.58.68,4.35A12.86,12.86,0,0,1,47.5,430s.94,9.24-3.15,12.29-12.94,4.64-21.59,1.57,1.1-9.21,2-13.23a28.94,28.94,0,0,1,2.56-6.24h0l.28-4.34a4.92,4.92,0,0,0,.21-2.73,20.58,20.58,0,0,1,2-.84,23.56,23.56,0,0,1,8.2-1.47S48.43,418.78,48.51,419Z"/><path class="cls-2" d="M51.4,257a15.19,15.19,0,0,0,2.27.08h.8l-.8,0-1,0c-.38,0-.8-.11-1.28-.16a3.41,3.41,0,0,1-.59-.11v.21A3,3,0,0,0,51.4,257Z"/><path class="cls-3" d="M51.52,255.09c0,.3,0,1,0,1.95,0,1.48,0,3.62-.09,6.2,0,.44,0,.88,0,1.33-.21,11.71-.68,30.54-1.33,35.62-1,7.57-3.85,31.54-3.85,31.54s2.13,21,1.67,25c-1.28,11.57-1.55,22.9-1.55,22.9s-.78,21.59-.73,29.57a1.84,1.84,0,0,1,.2,3.19c.16.8.4,1.7.68,2.65.48,1.61,1.1,3.37,1.66,5,.33,1,.65,1.95.93,2.83.59,2,.94,3.58.68,4.35a2.42,2.42,0,0,1-.21.41,17.17,17.17,0,0,1-2,2.37s.94,9.23-3.15,12.29-12.94,4.64-21.59,1.57,1.1-9.21,2-13.24a28.9,28.9,0,0,1,2.56-6.23h0a27.63,27.63,0,0,0,1.94-4.3v0a18.54,18.54,0,0,0,.5-3.18c0-.13,0-.26,0-.4.28-3.37.3-7.47.58-8.65,2.62-11.19-8.77-29-7.42-51.24.8-13,3.48-21.15,3.24-26-.43-8.49-3.77-20.59-5.4-32.5-.95-6.82-2.14-18.52-2.7-29.16-.13-2.23-.21-4.42-.25-6.49a90.66,90.66,0,0,1,.28-11.77h0c0-.16,0-.33.08-.49.11-.74.22-1.46.34-2.14.94-5.83,1.79-9.57,2.1-10.89.09-.36.13-.54.13-.54a23.66,23.66,0,0,1,1-6.59l.09-.25c.28-.82.81-2.47,1.45-4.5.29-1,.62-2,1-3.12.09-.27.17-.56.27-.84a1.15,1.15,0,0,1,0-.17v0a1.07,1.07,0,0,0,0,.18,16.13,16.13,0,0,0,2,4.84c.07.12.14.25.22.36,1.59,2.4,4.11,3.77,6.55,5.09a19.53,19.53,0,0,1,4.19,2.74c1.58,1.53,4.4,6,6.57,10a52.9,52.9,0,0,1,2.51,5.16l.55,1.39C48.09,253.05,48.82,254.52,51.52,255.09Z"/><path class="cls-4" d="M87.59,262.35c0,2-.12,4-.24,6.15-.55,10.74-1.77,22.63-2.72,29.54-1.62,11.92-5,24-5.4,32.5-.24,4.9,2.44,13.06,3.23,26,1.35,22.21-10,40-7.42,51.24.22.94.28,3.74.44,6.54,0,.89.11,1.78.19,2.61a18.33,18.33,0,0,0,.49,3.07v0a31.85,31.85,0,0,0,2.1,4.63,27.57,27.57,0,0,1,2.39,5.92c1,4,10.71,10.17,2,13.24s-17.48,1.48-21.59-1.57S58,430,58,430a13.61,13.61,0,0,1-2.2-2.68h0s0-.07,0-.11a7.86,7.86,0,0,1,.51-3.75v0c.29-1,.68-2.19,1.09-3.39.57-1.67,1.18-3.43,1.66-5,.28-1,.52-1.85.68-2.65a1.84,1.84,0,0,1,.2-3.19c0-8-.73-29.57-.73-29.57s-.27-11.34-1.55-22.9c-.46-4,1.67-25,1.67-25s-2.88-24-3.85-31.54c-.65-5.1-1.13-24-1.34-35.71,0-.42,0-.84,0-1.25,0-2.57-.07-4.72-.09-6.18v0c0-1,0-1.64,0-1.95,2.69-.58,3.43-2,4.33-4.26l.55-1.39a54.75,54.75,0,0,1,2.51-5.16c2.17-4,5-8.48,6.57-10a19.52,19.52,0,0,1,4.19-2.74c2.44-1.32,5-2.69,6.55-5.09a11.71,11.71,0,0,0,.66-1.12,16.56,16.56,0,0,0,1.54-4.08s0,0,0,0a.85.85,0,0,0,0-.14c.1.35.22.7.32,1l.79,2.58c.71,2.28,1.3,4.16,1.61,5l.09.25a23.61,23.61,0,0,1,1,6.59l.13.54c.28,1.2,1,4.42,1.85,9.37.05.35.12.7.18,1.07.16,1,.32,2,.48,3.08h0A91.2,91.2,0,0,1,87.59,262.35Z"/><path class="cls-5" d="M57,419.34l-.55,4.1c-.59,2.12-.94,3.86-.68,4.69a13.49,13.49,0,0,0,2.24,3s-.94,10,3.14,13.24,12.89,5,21.51,1.69c3.34-1.28,3.57-5.43,3.57-5.43s-5-6.16-5.62-8.82a32.89,32.89,0,0,0-2.54-6.72h0l-1.83-4.56c-.11-.4,1.06-1.45,1.34-3.06a21,21,0,0,0-2-.91A21.91,21.91,0,0,0,67.43,415S57.09,419.08,57,419.34Z"/><path class="cls-1" d="M82.72,443.82c-8.65,3.07-17.47,1.48-21.59-1.57S58,430,58,430a12.93,12.93,0,0,1-2.25-2.77,7.9,7.9,0,0,1,.51-3.75v0L57,419c.09-.28,9.26-4.05,9.26-4.05a23.42,23.42,0,0,1,9.43,2c.64.27,1.26.58,1.86.9-.39,1.06-.81,1.71-.74,2l1.48,4.84a27.74,27.74,0,0,1,2.39,5.93C81.62,434.61,91.37,440.75,82.72,443.82Z"/><path class="cls-3" d="M52.71,125v132H50.83l.06-.15-.95-.22c-.27-.11-.57-.25-.86-.39a7.28,7.28,0,0,1-.82-.62,13.93,13.93,0,0,1-2.17-4.06c-.94-2.23-2-4.72-3.21-7.34-.46-1-1-2-1.46-3.08a35.41,35.41,0,0,0-3.14-5.48c-.17-.21-.36-.4-.55-.61s-.38-.34-.57-.49c-.43-.32-.87-.62-1.33-.91-.94-.55-1.93-1.06-2.91-1.59a17.42,17.42,0,0,1-5.47-4,15.79,15.79,0,0,1-1.31-2.1,16.69,16.69,0,0,1-1.39-3.87,0,0,0,0,1,0,0c-.07-.27-.12-.55-.16-.82,0-.06,0-.1,0-.16a13,13,0,0,1,.12-5.2c.15-.46.31-.92.46-1.37l.48-1.26c.29-.85.54-1.69.78-2.48.46-1.59.87-3.07,1.22-4.39a24.36,24.36,0,0,0,.53-2.6s0,0,0,0c0-5.53-.42-12.59-.68-16.85-.14-2.3-.25-3.79-.25-3.79-.17-.33-.35-.7-.53-1.11-.77-1.7-1.62-4-2.46-6.34-1.09-3.15-2.14-6.55-2.93-9.16l-.06-.19c-.77-2.56-1.28-4.32-1.28-4.32s.12-1,.35-2.7c.14-1.05.33-2.37.57-3.87,1.08-7,3.07-18.07,5.7-24.46,1.33-3.24,4.37-5,7.87-5.78.38-.09.77-.18,1.15-.25,7-1.27,15.23.52,15.23.52C51.49,125.33,52.11,125.18,52.71,125Z"/><path class="cls-4" d="M84.19,162.06s-.42,1.89-1.09,4.57c-.14.6-.31,1.26-.48,1.93-.58,2.23-1.26,4.78-2,7.19a58.8,58.8,0,0,1-2.36,6.64c-.13.28-.25.54-.38.78l-.07,1.07c0,.13,0,.29,0,.45,0,.32,0,.69-.06,1.1l0,.46c0,.17,0,.35,0,.54s0,.11,0,.18c0,.28,0,.58-.05.89,0,.15,0,.31,0,.47-.05.92-.11,1.92-.16,3s-.13,2.48-.19,3.78c0,.17,0,.35,0,.52s0,.56,0,.83c0,.07,0,.14,0,.21v.06c0,.27,0,.53,0,.79l0,.81c0,.26,0,.53,0,.79,0,.8,0,1.59-.07,2.35h0c0,.54,0,1.07,0,1.59.24.93.52,2,.86,3.31s.76,2.78,1.22,4.39c.24.79.49,1.64.78,2.47l.48,1.26c.15.45.31.91.46,1.37a13,13,0,0,1,.11,5.19.64.64,0,0,1,0,.14s0,0,0,0c0,.27-.1.54-.15.81,0,0,0,0,0,0h0a16.31,16.31,0,0,1-1.07,3.17A15.15,15.15,0,0,1,78,228a17.47,17.47,0,0,1-5.47,4c-1,.53-2,1-2.9,1.59a15.15,15.15,0,0,0-1.33.9l-.58.49c-.18.21-.38.41-.55.61A35,35,0,0,0,64,241.15c-.48,1-.94,2-1.37,2.92-1.24,2.68-2.33,5.21-3.3,7.49a13.85,13.85,0,0,1-2.17,4.08,7.19,7.19,0,0,1-.83.62c-.29.13-.58.27-.86.39s-.65.16-1,.23l.07.18H52.71V125a20.45,20.45,0,0,1,8.56-.42,38.07,38.07,0,0,1,6.28.11,25.09,25.09,0,0,1,2.82.46c3.61.81,6.78,2.52,8.15,5.84,2.64,6.42,4.24,17.5,5,24.53.28,2.41.46,4.35.55,5.46C84.16,161.69,84.19,162.06,84.19,162.06Z"/><path class="cls-4" d="M98.14,246.53A71.45,71.45,0,0,1,96,257.83c-1.9,6.41-4.53,9.62-7.74,10.5a6.76,6.76,0,0,1-.86.17c-4,.57-9-2-9.11-5.27a3.73,3.73,0,0,1,.52-1.9c2.08-3.63,6.14-10,7.91-14.88a15.78,15.78,0,0,0,.78-2.86c.89-6.07-4.72-20.35-4.67-22.79a112.12,112.12,0,0,1,1.83-17.58L84.12,196a62.51,62.51,0,0,1-5.85-13.56q-.31-1-.6-2.11c-.61-2.36.09-9.9.83-16.13.59-5,1.21-9.1,1.21-9.1l-9.34-29.87-.58-1.87s12.62,0,20.38,21.61c3.52,9.78,6,24,5.94,44.63C96.1,189.56,99.88,232.37,98.14,246.53Z"/><path class="cls-3" d="M34.45,125.24,25,155.37s.6,4,1.18,8.79c.75,6.28,1.49,14,.87,16.44-.13.5-.27,1-.4,1.48a63,63,0,0,1-6,14.2l-.5,7.28A112.68,112.68,0,0,1,22,221.12c0,2.44-5.57,16.72-4.67,22.79A18,18,0,0,0,18.56,248c1.93,4.68,5.52,10.33,7.43,13.67a3.58,3.58,0,0,1,.5,1.59c.24,3.23-4.41,5.83-8.35,5.64a6.88,6.88,0,0,1-1.6-.24c-3.4-.93-6.14-4.46-8.06-11.61a75.32,75.32,0,0,1-1.87-10.2c-1.73-14.17,2-57,2-57-.23-46.12,12.62-60.14,20.43-64.39l.06,0A13.58,13.58,0,0,1,35,123.63Z"/><path class="cls-6" d="M63.46,112.36v0a12.58,12.58,0,0,1-10.78,5.86h-.05c-6.2,0-9.8-4.53-10.73-5.84.22-1.31.41-2.7.54-4.15.08-.87.17-1.74.24-2.65a42.26,42.26,0,0,0,9.83,1.28h.11a40,40,0,0,0,10-1.39c.08.88.16,1.75.25,2.6C63.08,109.6,63.24,111,63.46,112.36Z"/><path class="cls-7" d="M27.22,183.18c-.17-.33-.35-.7-.53-1.11a63,63,0,0,1-6,14.2l-.5,7.28A112.68,112.68,0,0,1,22,221.12c0,2.44-5.57,16.72-4.67,22.79A18,18,0,0,0,18.56,248c.94-5.83,1.79-9.57,2.1-10.89.09-.36.13-.54.13-.54a23.66,23.66,0,0,1,1-6.59l.09-.25c.28-.82.81-2.47,1.45-4.5.29-1,.62-2,1-3.12.09-.27.17-.56.27-.84a1.15,1.15,0,0,1,0-.17,13,13,0,0,1,.12-5.2c.15-.46.31-.92.46-1.37l.48-1.26c.29-.85.54-1.69.78-2.48.46-1.59.87-3.07,1.22-4.39a24.36,24.36,0,0,0,.53-2.6s0,0,0,0C28.08,195.3,27.22,183.18,27.22,183.18Z"/><path class="cls-7" d="M78.26,182.4c-.13.28-.25.54-.38.78,0,0-.72,10.05-.9,18.29h0c0,.54,0,1.07,0,1.59.24.93.52,2,.86,3.31s.76,2.78,1.22,4.39c.24.79.49,1.64.78,2.47l.48,1.26c.15.45.31.91.46,1.37a13,13,0,0,1,.11,5.19.64.64,0,0,1,0,.14.85.85,0,0,0,0-.14c.1.35.22.7.32,1l.79,2.58c.71,2.28,1.3,4.16,1.61,5l.09.25a23.61,23.61,0,0,1,1,6.59l.13.54c.28,1.2,1,4.42,1.85,9.37a15.78,15.78,0,0,0,.78-2.86c.89-6.07-4.72-20.35-4.67-22.79C82.95,211.7,80.65,190.35,78.26,182.4Z"/><path class="cls-5" d="M48.45,419.34l.56,4.1c.59,2.12.94,3.86.68,4.68a13.64,13.64,0,0,1-2.24,3s.94,10-3.13,13.24-12.89,5-21.51,1.69c-3.34-1.28-3.57-5.43-3.57-5.43s5-6.16,5.62-8.82a32.79,32.79,0,0,1,2.54-6.72h0l.28-4.67a5.74,5.74,0,0,0,.21-2.94,21.44,21.44,0,0,1,2-.91A22,22,0,0,1,38,415S48.37,419.08,48.45,419.34Z"/><path class="cls-8" d="M84.92,299c-.71,5.21-2.58,51.11-2.14,58.17.49,8.11-.69,30.88-1.59,45.41-.11,1.91-.23,3.68-.33,5.25-.09,1.22-1.66,2.52-1.74,3.48a6.34,6.34,0,0,0,0,.76,23.6,23.6,0,0,0,.59,3.59c.13,1.4-.68,2.64-1.18,3.92-.36.91.18,2.65.18,3.07a7.68,7.68,0,0,1-1.36,4c-7.33-.56-23.36-.29-22.94-1.51l-.09-6c.46-1.34.93-2.73,1.32-4,.17-.58.31-1.09.42-1.56a1.1,1.1,0,0,1-.13-.21,3.58,3.58,0,0,1-.53-1.87c0-1-.54-4.88.11-5.58,0-.52,0-1.11,0-1.77,0-10.13-.15-35.93-1.34-46.58-.44-4-1.26-49.37-2.16-56.47-.33-2.57-.61-23.41-.82-29.59-.22,6.2-.49,27-.82,29.59-.9,7.1-1.71,52.5-2.17,56.47C47,368,46.86,393.4,46.84,404.16c0,1,0,1.88,0,2.61.65.69.11,3.83.11,4.78a3.57,3.57,0,0,1-.49,1.82l-.17.27c.12.47.27,1,.44,1.57.38,1.25.85,2.64,1.3,4l-.25,5.29c.32,1-13.55-.64-23.11,2.9L23.4,421s1.1-2.37.82-2.62c-1.11-1-.78-.08-1.34-2.92A3.69,3.69,0,0,0,24,412.59a1.91,1.91,0,0,0-.31-.75,7.86,7.86,0,0,1-1.37-2.5c-.17-2-.37-4.36-.58-7-1.15-14.56-2.68-37-2.19-45.14.44-7.06-1.44-53-2.15-58.17-1.33-9.68-3.78-34.06-2.81-46.39l-.13,0,0-.22.28-1.84c.13-.86.27-1.67.4-2.46s.24-1.5.36-2.19c.35-2,.67-3.66.95-5,.33-1.63.61-2.81.76-3.48l.09-.35a24.32,24.32,0,0,1,1.09-7l.08-.24c.26-.73.75-2.26,1.42-4.42l.53-1.69,1.72.41c1,.23,1.92.49,2.9.76l3,.84c6.66,1.86,14.2,4,21.87,4h1.14c7.23-.19,14-2.1,20.65-3.95,1.93-.54,3.75-1.05,5.56-1.51.1,0,.24-.06.36-.1.82-.21,1.62-.39,2.41-.57l1.69-.37.51,1.65c.79,2.55,1.32,4.22,1.59,5l.08.2A24.25,24.25,0,0,1,85,237c0,.09,0,.21.09.35.18.77.45,2,.78,3.56.27,1.37.59,3,.94,5,.11.64.23,1.31.34,2,0,.05,0,.11,0,.17.16.92.31,1.9.46,2.94l.21,1.39,0,.13-.1,0C88.7,264.94,86.26,289.34,84.92,299Z"/><path class="cls-3" d="M51.48,93.42v71.45H12.62c-.63-.27-1-.4-1-.4,0-24,9.29-34.06,16.25-38.27l.06,0a20.92,20.92,0,0,1,7.47-2.89c2.37,0,3.9-3.05,4.92-7.68.16-.71.29-1.45.4-2.23.22-1.31.41-2.69.54-4.14,0-.53.11-1.07.15-1.61,0-.34.07-.69.1-1,.36-4.39.46-9.15.46-13.67C42,92.9,47.25,93.42,51.48,93.42Z"/><path class="cls-4" d="M91.41,164.48a9.74,9.74,0,0,0-.93.4h-39V93.42h.08c4.23,0,9.48-.52,9.48-.52,0,4.5.11,9.2.46,13.57,0,.38.07.77.1,1.14s.11,1,.14,1.45c.16,1.49.33,2.91.55,4.25v0c.08.6.19,1.15.3,1.69,1,4.93,2.58,8.25,5,8.25,0,0,15.3,1.84,21.36,22.37A66.3,66.3,0,0,1,91.41,164.48Z"/><path class="cls-9" d="M51.72,192.07,51.62,177l-.35-48.92v0l-16.11-7.82s-16.53,1-26,27.42c-2.35,6.58-3.77,15.92-4.58,26.23-.38,4.88-.64,10-.78,15.09C3,216.58,5.27,245.1,5.27,245.1l11.51.1c0,.17,1-8.55,1.49-11.75a63.66,63.66,0,0,1,2.05-8.09,64.36,64.36,0,0,0,2-17.25c0-.33,2.17-17,2.17-17l.71-7.09a23.09,23.09,0,0,1,.41,7.17,63.48,63.48,0,0,1-1.19,9c-.39,1.94-1.17,7.78-1.16,8a23.77,23.77,0,0,1-.43,4.48c.3.35.63.7.61.86-.38,2.4-3,9.5-3.78,12.62-.82,3.33-3,10.51-3.59,13.82-1.13,6-1.67,19.61-1.67,19.61l37.11,1.3L51.94,222Z"/><path class="cls-10" d="M98.67,188.87c-.16-5.12-.41-10.22-.81-15.08-.82-10.28-2.26-19.58-4.6-26.14-9.45-26.46-26-27.42-26-27.42l-16,7.85h0L50.84,177l-.12,15.07L50.47,222l1,38.79,36.9-1.48c.94,0-1.68-21.89-2.42-26.93-.58-3.95-4-8.91-5.13-12.72A42.26,42.26,0,0,1,79,213.41c0-.23.92-1.72.88-1.94-.8-5.06-1.18-8.21-1.69-11A85.78,85.78,0,0,1,77,191.12c-.37-5.61.34-7.53.34-7.53l.73,7.45s3.41,29.55,4.08,32.12,1.44,6.19,2.06,8.73.49,3.68,1.16,6.26c.48,1.83.14,4.85.41,6.69l11.56.25S99.5,216.52,98.67,188.87Z"/><path class="cls-8" d="M71.45,121.28c-.6-1.53-6.88-3.35-7.4-4.57-.87-2-1.67-3.8-1.67-3.8-.19,1.93-3.17,10.49-3.17,10.49s-9.35,4.48-7.88,4.8,8.4,9.05,10.38,11.37,1.66,4.46,2.18,1.33S73,125.37,71.45,121.28Z"/><path class="cls-8" d="M43.94,123.4s-3-8.57-3.18-10.49c0,0-.79,1.79-1.67,3.8-.52,1.22-7.7,3.1-8.29,4.63-1.58,4.1,7.94,16.44,8.46,19.57s.19,1,2.17-1.33,8.43-11.05,9.9-11.37S43.94,123.4,43.94,123.4Z"/><path class="cls-1" d="M15.08,270.39c-4.73-1.3-8.19-7.65-9.92-21.8-.26-2.16-5.12-5-5.16-8.19,2.56-1.42,10.25-2.23,13.38-2.23,1.06,0,4.94.1,5.95.28-.6,2.79-2.81,5.37-2.54,7.22.73,4.92,5.23,13.35,7.74,17.74S19.81,271.69,15.08,270.39Z"/><path class="cls-1" d="M87.23,270.39c4.73-1.3,8.19-7.65,9.92-21.8.27-2.16,5.13-5,5.16-8.19-2.57-1.42-10.25-2.23-13.38-2.23-1.06,0-4.93.1-5.94.28.59,2.79,2.81,5.37,2.53,7.22-.73,4.92-5.23,13.35-7.75,17.74S82.51,271.69,87.23,270.39Z"/><path class="cls-1" d="M82.43,223.63a104.69,104.69,0,0,1-62.29,0l2.52-10.43a96.21,96.21,0,0,0,57.26,0Q81.18,218.41,82.43,223.63Z"/><path class="cls-11" d="M59.86,223a6.22,6.22,0,0,1-6.22,6.22H48A6.22,6.22,0,0,1,41.74,223h0A6.22,6.22,0,0,1,48,216.75h5.67A6.22,6.22,0,0,1,59.86,223Z"/><path class="cls-12" d="M51.9,10.61c-41.18,0-41.42,34.47-39.59,57C9.49,62.3,1.14,64,1.82,72.37c.66,8.11,12.47,12.31,12.3,11.37C17.5,102.31,36.87,113,51.9,113h.31V10.61Z"/><path class="cls-13" d="M4.45,68.81a3.9,3.9,0,0,1,6-1.13,3.4,3.4,0,0,1,1,3.74c-.29,1.08-1.42,1.16-1.14,2.81a2.91,2.91,0,0,0,1.65,2.39,3.84,3.84,0,0,1,1.39,1.52,4.06,4.06,0,0,1,.18,2.32c-.31,1.34-2.25.28-3.55-.31a24.87,24.87,0,0,1-4.26-3.46C3.89,74.73,3.09,71,4.45,68.81Z"/><path class="cls-14" d="M52.1,10.61c41.18,0,41.42,34.47,39.59,57,2.82-5.35,11.18-3.69,10.5,4.73-.66,8.11-12.47,12.31-12.3,11.37C86.51,102.31,67.13,113,52.1,113h-.31V10.61Z"/><path class="cls-13" d="M99.56,68.81a3.9,3.9,0,0,0-6-1.13,3.4,3.4,0,0,0-1,3.74c.29,1.08,1.43,1.16,1.15,2.81a2.88,2.88,0,0,1-1.65,2.39,3.84,3.84,0,0,0-1.39,1.52,4.14,4.14,0,0,0-.18,2.32c.31,1.34,2.25.28,3.55-.31a24.43,24.43,0,0,0,4.26-3.46C100.11,74.73,100.91,71,99.56,68.81Z"/><path class="cls-15" d="M52.36,20.32c-13.55,0-23.46,3.94-29.47,11.7-8.38,10.85-8.06,27.42-5,39.32.94,3.64,1.43,13.44,2.08,17C22.93,104.47,40.67,113,52.36,113h.32V20.33Z"/><path class="cls-16" d="M81.78,32c-6-7.72-15.76-11.65-29.1-11.71V113c13.34-.15,29.3-9.53,32-24.64.65-3.6,1.13-13.4,2.08-17C89.88,59.48,90.19,42.93,81.78,32Z"/><path class="cls-17" d="M38.5,10.53C36.27,9.35,26.75,5.73,26.75,5.73S30,7.65,30.39,9.35,8.88,19,5.85,40.65,10.55,71,10.55,71,9.12,55.78,9.12,55.82a71.5,71.5,0,0,0,0,12.1c.61,5.31,2.43,11.46,0,17.63s-3.44,6.63-3.44,6.63,7.23-6.56,8.64-10.75c2.43-7.22,1.46-10.23,2.27-14.27S18,52.26,18,52.26s-3.62,8.79.61,17.42a21.51,21.51,0,0,0,2.94,4.46,25,25,0,0,1-2-11.25c.32-3.62,2.59-4.17,7.67-17.45,2.4-6.3.36-18.4,0-15.45S26.45,40.29,29,44a20.47,20.47,0,0,0,9.36,7.42,16.46,16.46,0,0,1-6.11-12.3,18.76,18.76,0,0,1,1.62-7.65S32.28,40.29,46.31,45.6a11.63,11.63,0,0,0,7.17.5s-5.83-3.26-5.87-8.92A47.64,47.64,0,0,0,72.52,51.62a37.4,37.4,0,0,0,10.44,1s.65-1.3.45,4.7-1.29,8.55-2.77,10.61a20.53,20.53,0,0,1-2.45,2.39A15.22,15.22,0,0,0,85.75,63c2-3.87,1.35-9.08,1.35-9.08A102.2,102.2,0,0,1,87.1,69c-.87,12.6-5.46,18.1-5.46,18.1a28.56,28.56,0,0,0,7.42-11.07c2.21-5.64,1.69-9.16,1.69-9.16s-.38,8.82,10.33,14.78c0,0-3-2-4.46-11.8-1.83-12.5,1.3-22.24-1.13-32s-3.09-10.72-7.14-16S80.41,12.27,69.48,8.75,56.22,6.43,52,6.49A20.81,20.81,0,0,0,41.13,9.56a9.45,9.45,0,0,1,.39-5.17A26.19,26.19,0,0,1,43.36,0s-2.67,3.91-3.24,4.89C37.75,8.92,38.5,10.53,38.5,10.53Z"/><path class="cls-17" d="M50.73,102.46a2,2,0,0,0-.28,1v1a2.33,2.33,0,0,0,4.65,0v-1a2,2,0,0,0-.28-1c-.66-.06-1.34-.1-2-.1S51.39,102.4,50.73,102.46Z"/><path class="cls-17" d="M69.35,97.69s-.4-.35-1.09-.89-1.78-1.32-3.13-2.16c-2-1.26-4.52-3.23-7.77-3.79a36.23,36.23,0,0,0-9.36,0c-3.25.57-5.76,2.53-7.77,3.79-1.35.84-2.41,1.61-3.13,2.16s-1.09.88-1.09.89A13.82,13.82,0,0,0,34.07,105a14.25,14.25,0,0,0,1.54,6.64,4.93,4.93,0,0,0,1.44,2,5.82,5.82,0,0,0,2.17,1.46c3.16,1.64,8,2.7,13.46,2.7s10.29-1.06,13.46-2.7a5.78,5.78,0,0,0,2.17-1.46,4.89,4.89,0,0,0,1.44-2A14.22,14.22,0,0,0,71.27,105,13.82,13.82,0,0,0,69.35,97.69Zm-3.44,12.9a30.94,30.94,0,0,1-13.24,2.59,30.94,30.94,0,0,1-13.24-2.59A14.75,14.75,0,0,1,38.37,105a16.16,16.16,0,0,1,.09-1.65,18.48,18.48,0,0,1,11.18-5.41,22.44,22.44,0,0,1,6.09,0,18.48,18.48,0,0,1,11.18,5.41A16.17,16.17,0,0,1,67,105,14.71,14.71,0,0,1,65.91,110.6Z"/></svg>