<svg id="Layer_1" data-name="Layer 1" xmlns="http://www.w3.org/2000/svg" viewBox="0 0 131 448"><defs><style>.cls-1,.cls-8{fill:#bc9f82;}.cls-2{fill:#baa46f;}.cls-3{fill:#dcc59f;}.cls-4{fill:#edd9b4;}.cls-5{fill:#331b15;}.cls-6{fill:#dfa400;}.cls-7{fill:#551c17;}.cls-8{opacity:0.7;}.cls-9{fill:#ccad8b;}.cls-10{fill:#d9bf9f;}.cls-11{fill:#dcc5a1;}.cls-12{fill:#b47070;}.cls-13{fill:#c17874;}.cls-14{fill:#f2de91;}.cls-15{fill:#a51118;}</style></defs><title>studio 1</title><path class="cls-1" d="M24.17,62.54a3.84,3.84,0,0,1,5.69-1,3,3,0,0,1,.92,3.39c-.28,1-1.36,1.06-1.09,2.55a2.66,2.66,0,0,0,1.57,2.17A3.54,3.54,0,0,1,32.59,71a3.58,3.58,0,0,1,.18,2.11c-.3,1.21-2.16.25-3.4-.29a23.48,23.48,0,0,1-4.07-3.14C23.64,67.9,22.87,64.5,24.17,62.54Z"/><path class="cls-1" d="M115.09,62.54a3.83,3.83,0,0,0-5.68-1,3,3,0,0,0-.92,3.39c.27,1,1.36,1.06,1.1,2.55A2.65,2.65,0,0,1,108,69.62a3,3,0,0,0-1.5,3.49c.3,1.21,2.15.25,3.39-.29A23,23,0,0,0,114,69.67C115.63,67.9,116.39,64.5,115.09,62.54Z"/><path class="cls-2" d="M79.77,79.43A23.26,23.26,0,0,0,70,81.61a23.37,23.37,0,0,0-13.29-4.14,24.05,24.05,0,0,0-23.82,24.28c0,3.35-5.87,9.75-4.66,12.65a18.54,18.54,0,0,0,3.17,5.2C35.72,125,49.27,126,56.67,126a23.22,23.22,0,0,0,9.81-2.18A23.38,23.38,0,0,0,79.77,128c8.6,0,21.87-.73,26.06-7.69a27.25,27.25,0,0,0,1.82-3.86c1.09-2.78-4.05-9.55-4.05-12.72A24.05,24.05,0,0,0,79.77,79.43Z"/><path class="cls-3" d="M59.45,100.49,45.38,130.87l-6.11,0s-3.66,12.89,1.41,21.55,16.21,15.06,8.59,30.27-18.42,25-18.4,51.9,22.9,69.23,21.87,93.28c-.27,6.46-6.66,19.64-6.86,26.55S54.61,398.5,55,410a29.77,29.77,0,0,1-8,20.6c-3.29,3.37-9.12,12.61-2.79,14.66S58.9,449.78,63,437.85c1.39-4.07,2.9-2.71,3-5.62.13-2.6-1-9.32-.85-15.21.36-12.49.91-77.94,1-89.91s.17-93.38.17-93.38l2.94,1.17V101.54A55.44,55.44,0,0,1,59.45,100.49Z"/><path class="cls-4" d="M84,410c.35-11.52,9.27-48.72,9.07-55.63s-6.58-20.09-6.86-26.56c-1-24,21.85-66.4,21.87-93.28s-10.78-36.68-18.4-51.89,3.52-21.61,8.59-30.27,1.41-21.54,1.41-21.54l-8.24,0L78.47,100.77a44.26,44.26,0,0,1-9.22.77V234.91a1.1,1.1,0,0,0,.22,0,15.84,15.84,0,0,0,3.14-1.27s.09,81.4.17,93.38.63,77.42,1,89.91c.17,5.89-1,12.6-.85,15.21.15,2.91,1.66,1.56,3,5.62,4.07,11.93,12.51,9.46,18.84,7.42s.5-11.29-2.79-14.65A29.77,29.77,0,0,1,84,410Z"/><path class="cls-5" d="M52.25,447A27.51,27.51,0,0,1,44,445.29a4,4,0,0,1-2.64-2.24c-.86-2.05.15-4.82,1.14-6.78l.2-.4.17.42c.79,2,2.33,3.13,5.13,3.84a9.94,9.94,0,0,0,2.44.3c8.32,0,14.5-10.6,15.18-11.81l.32-.58.06.66a28,28,0,0,1,.16,3.36A3,3,0,0,1,65,434.59a6.58,6.58,0,0,0-1.93,3.16C60.93,444,57.4,447,52.25,447Z"/><path class="cls-5" d="M86.68,447A27.5,27.5,0,0,0,95,445.29a4,4,0,0,0,2.64-2.24c.86-2.05-.15-4.82-1.14-6.78l-.21-.4-.17.42c-.79,2-2.33,3.13-5.12,3.84a9.93,9.93,0,0,1-2.43.3c-8.32,0-14.5-10.6-15.18-11.81l-.32-.58-.06.66a28.41,28.41,0,0,0-.16,3.36,3,3,0,0,0,1.12,2.52,6.59,6.59,0,0,1,1.93,3.16C78,444,81.54,447,86.68,447Z"/><path class="cls-6" d="M87,392.09c.79-4.33,1.68-8.94,2.55-13.39,2.11-10.86,4.1-21.11,4-24.45-.1-3.64-1.87-8.92-3.57-14-1.62-4.87-3.16-9.47-3.28-12.53-.51-12,4.87-28.29,10.57-45.56,5.55-16.82,11.29-34.21,11.3-47.69,0-20.73-6.49-31.58-12.78-42.08-1.91-3.2-3.9-6.5-5.67-10-2.15-4.29-2.76-7.86-2.43-11h-.53c-.32,3.18.31,6.83,2.5,11.21,7.63,15.22,18.43,25,18.4,51.9s-22.9,69.23-21.88,93.27c.28,6.46,6.66,19.64,6.86,26.56.14,4.62-3.8,22.77-6.54,37.74.13,18.08,13.72,38.08,13.72,38.08s-14.35,10.84-30.75,10.84-27.75-10.84-27.75-10.84,10.38-19.62,10.9-37c-2.74-15.16-6.86-34-6.73-38.75.2-6.92,6.58-20.1,6.87-26.55,1-24-21.86-66.4-21.88-93.28s10.78-36.68,18.39-51.9c2.21-4.41,2.84-8.06,2.5-11.26h-.53c.34,3.13-.27,6.72-2.43,11-1.77,3.54-3.75,6.84-5.67,10-6.29,10.5-12.8,21.35-12.78,42.08,0,13.48,5.75,30.87,11.3,47.7,5.7,17.27,11.08,33.59,10.57,45.55-.14,3.06-1.67,7.66-3.29,12.53-1.7,5.11-3.47,10.4-3.57,14-.09,3.33,1.9,13.57,4,24.42.93,4.8,1.89,9.77,2.73,14.38-.53,17.06-10.74,36.55-10.84,36.74l-.18.34.28.26c.11.11,11.73,11,28.1,11s30.91-10.84,31.06-10.95l.38-.29-.27-.4C100.5,429.6,87.13,409.72,87,392.09Z"/><path class="cls-7" d="M49.27,182.59c-7.62,15.21-18.42,25-18.39,51.9s22.9,69.23,21.88,93.28c-.28,6.45-6.66,19.64-6.87,26.55-.13,4.72,4,23.6,6.73,38.75-.53,17.39-10.9,37-10.9,37s11.39,10.84,27.75,10.84,30.75-10.84,30.75-10.84-13.59-20-13.72-38.08c2.73-15,6.68-33.12,6.54-37.74-.19-6.92-6.58-20.1-6.86-26.56-1-24,21.85-66.4,21.88-93.27s-10.78-36.67-18.4-51.9c-2.19-4.38-2.83-8-2.5-11.21H51.77C52.11,174.53,51.48,178.18,49.27,182.59Z"/><path class="cls-3" d="M59.5,101h0l-.79,1.78L41.28,141.52l-2.94,4c-10.85,14.77-21.5,29.42-22,30.8a1.2,1.2,0,0,0-.05.37.83.83,0,0,0,0,.22,2.54,2.54,0,0,0,.05.35,2.48,2.48,0,0,0,.05.26c1.31,6.35,14.38,31.69,14.38,31.69s13.92,3.28,17.82,4.34,6,0,2.49,15.61-9.58,7.09-10.65,1.78-4.25-4.27-8.51-5.32S3.57,182.34,1.09,178.91a5.47,5.47,0,0,1-1-2.53v-.07c0-.14,0-.26,0-.41a6.5,6.5,0,0,1,0-1.24c0-.13,0-.28.05-.42.62-4.37,4.52-11.9,15.47-26.84,7.78-10.63,13.85-18,18.26-22.93a32,32,0,0,1,4.33-5.26,28.91,28.91,0,0,1,4.41-3.58c.32-.21.63-.42.94-.6a22.89,22.89,0,0,1,8.24-3.2c2.43,0,4.05-3,5.15-7.57.06-.25.12-.52.18-.79.15-.67.28-1.35.39-2.08,0-.11,0-.24.05-.34s.07-.42.1-.64h0C58.23,100.61,58.88,100.82,59.5,101Z"/><path class="cls-4" d="M118.08,235.26c-1.86,14.06-5.59,20.35-10.67,21.64S94.56,254.32,97.26,250s9.57-12.73,10.36-17.6c1-6-3-20.19-3-22.62.16-9,1-17.45,1-17.45l-.49-6.46-.06-.76-5.8-34.82-.62-3.69L96,144.44,79.19,103.53l-.91-2.21h0l1.29-.35c.43-.13.86-.27,1.29-.42h0c0,.15,0,.29.06.44v0c0,.17.05.34.08.51.07.46.15.9.24,1.33s.17.82.26,1.22c1.11,4.68,2.76,7.76,5.22,7.76a23.93,23.93,0,0,1,10.21,4.53c4.12,3,8.61,7.94,11.72,16a74.7,74.7,0,0,1,4.25,13.53c1.89,8.53,3,19.29,3,32.83,0,.1,0,.33.06.65a1.65,1.65,0,0,0,0,.2c0,.2,0,.45.06.72,0,.1,0,.21,0,.35s0,.52.07.8.06.69.09,1.08c0,.2,0,.42.06.63a1.89,1.89,0,0,0,0,.25c0,.29.05.59.07.91C117.4,196.29,119.53,224.34,118.08,235.26Z"/><path class="cls-7" d="M99.5,133.55c-3.46-10.32-9.37-16-11.06-21.88a16.71,16.71,0,0,0-3.13-.83h-.19a13,13,0,0,1-3-4.36,20.9,20.9,0,0,1-3.36,1.36c-3.43,1-9.2,2.43-9.2,2.43a138.51,138.51,0,0,1,5.58,13.89c2.27,6.61-1.35,11.57-5.75,11.76-4.39-.19-8-5.15-5.74-11.76a139.49,139.49,0,0,1,5.59-13.89s-5.77-1.45-9.2-2.43a27.71,27.71,0,0,1-3.8-1.36,15.67,15.67,0,0,1-2.51,4.36h-.19a16.61,16.61,0,0,0-3.13.83c-1.7,5.85-6,12.26-11.06,21.88-2.37,4.49-1.85,9.53-.72,13.54a18.81,18.81,0,0,0,1.73,4.77l.08.19h0c.07.12.12.25.19.36,3.6,6.16,10.27,11.17,11.08,19H87.15c.8-7.87,7.48-12.89,11.09-19.05A24.06,24.06,0,0,0,99.5,133.55Z"/><path class="cls-6" d="M40.69,152.42c-.07-.12-.12-.24-.19-.36h0l-.08-.19a18.81,18.81,0,0,1-1.73-4.77c-1.13-4-1.65-9.05.72-13.54,5.08-9.63,9.36-16,11.06-21.88a16.61,16.61,0,0,1,3.13-.83h.19a15.67,15.67,0,0,0,2.51-4.36,27.71,27.71,0,0,0,3.8,1.36c3.43,1,9.2,2.43,9.2,2.43a139.49,139.49,0,0,0-5.59,13.89c-2.27,6.61,1.35,11.57,5.74,11.76,4.4-.19,8-5.15,5.75-11.76a138.51,138.51,0,0,0-5.58-13.89s5.78-1.45,9.2-2.43a20.9,20.9,0,0,0,3.36-1.36,13,13,0,0,0,3,4.36h.19a16.71,16.71,0,0,1,3.13.83c1.7,5.85,7.6,11.57,11.06,21.88a24.06,24.06,0,0,1-1.26,18.83c-3.61,6.16-10.29,11.18-11.09,19.05h.53c.55-5.15,3.67-9.06,6.73-12.89a51,51,0,0,0,4.28-5.9,24.44,24.44,0,0,0,1.3-19.25,63.22,63.22,0,0,0-6.9-13.78c-1.83-3-3.42-5.53-4.16-8.08l-.07-.25-.25-.09a16.33,16.33,0,0,0-3.3-.87h0a13.88,13.88,0,0,1-2.65-4l-.2-.53-.5.26a20.79,20.79,0,0,1-3.27,1.32c-3.38,1-9.13,2.41-9.18,2.43H69.4c-.05,0-5.81-1.46-9.19-2.43a27.64,27.64,0,0,1-3.7-1.32l-.5-.26-.2.53a18,18,0,0,1-2.25,4h0a16.84,16.84,0,0,0-3.23.86l-.24.09-.07.25c-1.16,4-3.57,8.29-6.61,13.73-1.34,2.39-2.85,5.09-4.41,8.06-2,3.84-2.28,8.52-.77,13.9a19.74,19.74,0,0,0,1.81,5l0,.1.15.3h0l.06.11a52.11,52.11,0,0,0,4.28,5.91c3,3.82,6.16,7.72,6.72,12.84h.53C51,163.59,44.29,158.58,40.69,152.42Zm28.76-41.31c.78,1.68,3,6.62,5.27,13.21,1.08,3.14.84,6.2-.66,8.4a5.92,5.92,0,0,1-4.59,2.69,5.92,5.92,0,0,1-4.62-2.69c-1.5-2.2-1.74-5.26-.66-8.4C66.45,117.74,68.67,112.8,69.44,111.11Z"/><circle class="cls-5" cx="30.88" cy="209.13" r="1.75"/><circle class="cls-5" cx="30.5" cy="212.62" r="1.75"/><circle class="cls-5" cx="29.13" cy="215.8" r="1.74"/><circle class="cls-5" cx="26.72" cy="218.15" r="1.74"/><path class="cls-8" d="M80.91,101c0,.17.05.34.08.51a15.2,15.2,0,0,1-1.81,2,14.13,14.13,0,0,1-9.93,3.87h-.06a14.75,14.75,0,0,1-10.49-4.61,16.74,16.74,0,0,1-1.25-1.4c0-.11,0-.24.05-.34s.07-.42.1-.64l-.56-.19c.22-1.33.41-2.74.54-4.19.09-1,.2-2,.29-3a48.38,48.38,0,0,0,11.19,1.46h.54a45.79,45.79,0,0,0,11-1.57c.09,1,.19,2,.28,2.94.17,1.58.33,3.09.57,4.51l-.63.21c0,.15,0,.29.06.44Z"/><path class="cls-9" d="M69.4,9.7c-38.79-.07-39,31.1-37.29,51.43-2.66-4.77-10.53-3-9.88,4.64.62,7.31,11.74,10.62,11.58,9.82C37,92.15,55.27,101.34,69.4,102.66h.3V9.7Z"/><path class="cls-10" d="M69.59,9.7c38.79-.07,39,31.1,37.29,51.43,2.67-4.77,10.53-3,9.89,4.64-.62,7.31-11.74,10.62-11.58,9.82-3.18,16.56-21.46,25.76-35.6,27.07H69.3V9.7Z"/><path class="cls-11" d="M69.2,18.52c-13,0-22.44,3.57-28.18,10.62C33,39,33.31,54,36.27,64.83c.9,3.3,1.36,12.2,2,15.47C41.05,94.9,58,102.67,69.2,102.67h.3V18.53Z"/><path class="cls-4" d="M97.31,29.16c-5.7-7-15.07-10.58-27.81-10.63v84.14c12.76-.13,28-8.66,30.63-22.37.62-3.27,1.08-12.16,2-15.47C105.06,54.06,105.36,39,97.31,29.16Z"/><path class="cls-12" d="M76,89.48s-2.92,3.13-6.53,3.13-6.37-3.06-6.37-3.06a41.67,41.67,0,0,1,6.37-.47A52.63,52.63,0,0,1,76,89.48Z"/><path class="cls-13" d="M71.33,88a1.69,1.69,0,0,0-1.85,1.42A1.7,1.7,0,0,0,67.63,88a26.11,26.11,0,0,0-4.69,1.45s3.57.37,4.6.37,1.92.4,1.94-.36c0,.76.75.47,1.76.47S76,89.48,76,89.48A26,26,0,0,0,71.33,88Z"/><path class="cls-14" d="M108.15,89.46c-.19,3.42-.37,3.78,1.24,6.47s3.49,3.7,1.7,6.75-4.75,3.41-4.56,6.1,3.42,4,2.86,7.56c-.49,3.26-5.63,6.67-6.59,7.27.78-.57,4.09-3.2,3.62-6.52-.55-3.78-1-4-4.9-6.1s-4.54-3.1-3.45-6.15,4.67-3.34,2-6.57-4.25-5.44-3.54-7.42S96,87.4,99.21,83.59c2-2.32,1.69-7.56,1.69-9.9s3.21-13.63-2-18.59c-.94-.88-2.54-2.92-4.45-5.26-1.57-1.93-3.37-4.1-5.17-6a28.52,28.52,0,0,1-4.72-7.45c-1.17-2.51-1.93-4.59-2.11-5.06.06.54.4,3,.63,4.87.08.7.16,1.33.18,1.8a11.15,11.15,0,0,0,4.09,8c-1.3-.76-6.67-4.07-8.84-7a15.48,15.48,0,0,1-2-3.49,13,13,0,0,1-.26-9.57,47.49,47.49,0,0,1-6.44,8.18c-.24.24-.5.45-.76.68a89.57,89.57,0,0,1-10.14,7,27.35,27.35,0,0,0,5.56-7.35A11.6,11.6,0,0,0,65.19,33c.68-1.61,3.42-10.06,3.42-10.06a130.45,130.45,0,0,1-6.93,11.29,41.8,41.8,0,0,1-7.4,8.15c-1,.84-2.45,2-4,3.31-5.66,4.77-13.5,12-14.21,15.9-.89,5,1.61,16,3.23,20.48s1.8,5.94,0,7.74-6.29,5-5.55,6.64,3.41,4.3,2.87,6.47-6.44,7.32-7.2,10.24c-1.3,5.14,6.5,9.51,7.4,10-.93-.31-11.47-4.37-10.27-9.83.78-3.54.18-4.12-1.8-6.83s-4.85-7.19-2.17-9.88,6.46-5.76,5.58-8.81S17.63,63.65,17.63,56.17A66.38,66.38,0,0,1,19,45a88.21,88.21,0,0,1,3.36-12.65c3-8.57,7.74-17.12,14.86-21.74C52.45.76,63.21-.78,68.61.47s10.87-1,12.3-.38,15.22,6.39,20.43,12.31c4,4.6,14,15.77,18.3,28.75A36.89,36.89,0,0,1,121.73,53c0,.44,0,.88,0,1.33C121,71.37,108.33,86.12,108.15,89.46Z"/><path class="cls-7" d="M121.73,53c0,.44,0,.88,0,1.33-7.22-1.41-16.58-3-27.23-4.48-7.28-1-15.15-1.91-23.36-2.61-7.25-.71-14.26-1.2-20.85-1.54C37.9,45,27,44.93,19,45a88.21,88.21,0,0,1,3.36-12.65c7.12.18,22.21.74,39.36,1.86.26,0,.54,0,.8,0,.68.05,1.36.11,2,.13,1.48.13,3,.26,4.58.36,1,.11,2,.18,3,.29h.15a.26.26,0,0,1,.13,0l4.2.39c1.88.21,3.67.39,5.37.6.39.06.78.11,1.17.13s1,.13,1.49.18c14.73,1.77,27.69,3.62,35.06,4.77A36.89,36.89,0,0,1,121.73,53Z"/><path class="cls-15" d="M111.17,47a4.06,4.06,0,1,1-1.79-5.45A4.07,4.07,0,0,1,111.17,47Z"/><path class="cls-15" d="M89.84,36.17S92.15,26.09,95,25.94s13.82,16.65,12.53,19.2-21.33,3.65-22.9,1.25S89.84,36.17,89.84,36.17Z"/><path class="cls-15" d="M125.26,54.12s6.75-7.83,5.18-10.23-21.6-1.3-22.89,1.25,9.66,19.36,12.53,19.21S125.26,54.12,125.26,54.12Z"/></svg>